<mxfile host="app.diagrams.net" modified="2021-05-08T10:52:16.546Z" agent="5.0 (Macintosh; Intel Mac OS X 10_15_7) AppleWebKit/537.36 (KHTML, like Gecko) Chrome/90.0.4430.93 Safari/537.36" etag="TmzxdKOjlzlCePkZ-Jpp" version="14.6.6" type="github">
  <diagram id="Pu1WJ6mnmGwh4OW7iA5V" name="Page-1">
    <mxGraphModel dx="1250" dy="536" grid="1" gridSize="5" guides="1" tooltips="1" connect="1" arrows="1" fold="1" page="0" pageScale="1" pageWidth="827" pageHeight="1169" math="0" shadow="0">
      <root>
        <mxCell id="0" />
        <mxCell id="1" parent="0" />
        <mxCell id="W9VXBkHcguTDokLWkvG--7" value="" style="endArrow=classic;html=1;entryX=0;entryY=0.5;entryDx=0;entryDy=0;" edge="1" parent="1" target="W9VXBkHcguTDokLWkvG--3">
          <mxGeometry width="50" height="50" relative="1" as="geometry">
            <mxPoint x="-10" y="145" as="sourcePoint" />
            <mxPoint x="65" y="130" as="targetPoint" />
          </mxGeometry>
        </mxCell>
        <mxCell id="W9VXBkHcguTDokLWkvG--8" value="&lt;span style=&quot;font-family: &amp;#34;times new roman&amp;#34;&quot;&gt;&lt;font style=&quot;font-size: 20px&quot;&gt;50BTC&lt;/font&gt;&lt;/span&gt;" style="text;html=1;strokeColor=none;fillColor=none;align=center;verticalAlign=middle;whiteSpace=wrap;rounded=0;" vertex="1" parent="1">
          <mxGeometry x="20" y="115" width="40" height="20" as="geometry" />
        </mxCell>
        <mxCell id="W9VXBkHcguTDokLWkvG--9" value="&lt;span style=&quot;color: rgb(0 , 0 , 0) ; font-family: &amp;#34;times new roman&amp;#34; ; font-size: 16px ; font-style: normal ; font-weight: 400 ; letter-spacing: normal ; text-indent: 0px ; text-transform: none ; word-spacing: 0px ; background-color: rgb(255 , 255 , 255) ; display: inline ; float: none&quot;&gt;ScriptSig&lt;br&gt;{***|1AF***}&lt;/span&gt;" style="text;whiteSpace=wrap;html=1;align=center;" vertex="1" parent="1">
          <mxGeometry x="-55" y="150" width="190" height="70" as="geometry" />
        </mxCell>
        <mxCell id="W9VXBkHcguTDokLWkvG--10" value="" style="group" vertex="1" connectable="0" parent="1">
          <mxGeometry x="107.5" y="55" width="195" height="310" as="geometry" />
        </mxCell>
        <mxCell id="W9VXBkHcguTDokLWkvG--1" value="" style="rounded=0;whiteSpace=wrap;html=1;" vertex="1" parent="W9VXBkHcguTDokLWkvG--10">
          <mxGeometry x="2.5" width="190" height="310" as="geometry" />
        </mxCell>
        <mxCell id="W9VXBkHcguTDokLWkvG--2" value="&lt;font style=&quot;font-size: 30px&quot; face=&quot;Times New Roman&quot;&gt;Tx 1&lt;/font&gt;" style="text;html=1;strokeColor=none;fillColor=none;align=center;verticalAlign=middle;whiteSpace=wrap;rounded=0;" vertex="1" parent="W9VXBkHcguTDokLWkvG--10">
          <mxGeometry x="57.5" width="80" height="50" as="geometry" />
        </mxCell>
        <mxCell id="W9VXBkHcguTDokLWkvG--3" value="&lt;font style=&quot;font-size: 30px&quot; face=&quot;Times New Roman&quot;&gt;In&lt;/font&gt;" style="rounded=0;whiteSpace=wrap;html=1;" vertex="1" parent="W9VXBkHcguTDokLWkvG--10">
          <mxGeometry x="12.5" y="60" width="70" height="60" as="geometry" />
        </mxCell>
        <mxCell id="W9VXBkHcguTDokLWkvG--4" value="&lt;font face=&quot;Times New Roman&quot; style=&quot;font-size: 30px&quot;&gt;Out&lt;/font&gt;" style="rounded=0;whiteSpace=wrap;html=1;" vertex="1" parent="W9VXBkHcguTDokLWkvG--10">
          <mxGeometry x="112.5" y="60" width="70" height="60" as="geometry" />
        </mxCell>
        <mxCell id="W9VXBkHcguTDokLWkvG--5" value="&lt;span style=&quot;font-family: &amp;#34;times new roman&amp;#34; ; font-size: 30px&quot;&gt;Out&lt;/span&gt;" style="rounded=0;whiteSpace=wrap;html=1;" vertex="1" parent="W9VXBkHcguTDokLWkvG--10">
          <mxGeometry x="112.5" y="150" width="70" height="60" as="geometry" />
        </mxCell>
        <mxCell id="W9VXBkHcguTDokLWkvG--6" value="&lt;font style=&quot;font-size: 16px&quot; face=&quot;Times New Roman&quot;&gt;ScriptSig：{***|1AF***}&lt;/font&gt;" style="text;html=1;strokeColor=none;fillColor=none;align=center;verticalAlign=middle;whiteSpace=wrap;rounded=0;" vertex="1" parent="W9VXBkHcguTDokLWkvG--10">
          <mxGeometry y="260" width="195" height="50" as="geometry" />
        </mxCell>
        <mxCell id="W9VXBkHcguTDokLWkvG--12" value="" style="group" vertex="1" connectable="0" parent="1">
          <mxGeometry x="500" y="55" width="195" height="310" as="geometry" />
        </mxCell>
        <mxCell id="W9VXBkHcguTDokLWkvG--13" value="" style="rounded=0;whiteSpace=wrap;html=1;" vertex="1" parent="W9VXBkHcguTDokLWkvG--12">
          <mxGeometry x="2.5" width="190" height="310" as="geometry" />
        </mxCell>
        <mxCell id="W9VXBkHcguTDokLWkvG--14" value="&lt;font style=&quot;font-size: 30px&quot; face=&quot;Times New Roman&quot;&gt;Tx 2&lt;/font&gt;" style="text;html=1;strokeColor=none;fillColor=none;align=center;verticalAlign=middle;whiteSpace=wrap;rounded=0;" vertex="1" parent="W9VXBkHcguTDokLWkvG--12">
          <mxGeometry x="57.5" width="80" height="50" as="geometry" />
        </mxCell>
        <mxCell id="W9VXBkHcguTDokLWkvG--15" value="&lt;font style=&quot;font-size: 30px&quot; face=&quot;Times New Roman&quot;&gt;In&lt;/font&gt;" style="rounded=0;whiteSpace=wrap;html=1;" vertex="1" parent="W9VXBkHcguTDokLWkvG--12">
          <mxGeometry x="12.5" y="60" width="70" height="60" as="geometry" />
        </mxCell>
        <mxCell id="W9VXBkHcguTDokLWkvG--16" value="&lt;font face=&quot;Times New Roman&quot; style=&quot;font-size: 30px&quot;&gt;Out&lt;/font&gt;" style="rounded=0;whiteSpace=wrap;html=1;" vertex="1" parent="W9VXBkHcguTDokLWkvG--12">
          <mxGeometry x="112.5" y="60" width="70" height="60" as="geometry" />
        </mxCell>
        <mxCell id="W9VXBkHcguTDokLWkvG--17" value="&lt;span style=&quot;font-family: &amp;#34;times new roman&amp;#34; ; font-size: 30px&quot;&gt;Out&lt;/span&gt;" style="rounded=0;whiteSpace=wrap;html=1;" vertex="1" parent="W9VXBkHcguTDokLWkvG--12">
          <mxGeometry x="112.5" y="150" width="70" height="60" as="geometry" />
        </mxCell>
        <mxCell id="W9VXBkHcguTDokLWkvG--18" value="&lt;font style=&quot;font-size: 16px&quot; face=&quot;Times New Roman&quot;&gt;ScriptSig：{***|1BF***}&lt;/font&gt;" style="text;html=1;strokeColor=none;fillColor=none;align=center;verticalAlign=middle;whiteSpace=wrap;rounded=0;" vertex="1" parent="W9VXBkHcguTDokLWkvG--12">
          <mxGeometry y="260" width="195" height="50" as="geometry" />
        </mxCell>
        <mxCell id="W9VXBkHcguTDokLWkvG--19" value="&lt;font style=&quot;font-size: 30px&quot; face=&quot;Times New Roman&quot;&gt;In&lt;/font&gt;" style="rounded=0;whiteSpace=wrap;html=1;" vertex="1" parent="W9VXBkHcguTDokLWkvG--12">
          <mxGeometry x="12.5" y="150" width="70" height="60" as="geometry" />
        </mxCell>
        <mxCell id="W9VXBkHcguTDokLWkvG--26" value="&lt;font style=&quot;font-size: 16px&quot; face=&quot;Times New Roman&quot;&gt;ScriptSig：{***|1CF***}&lt;/font&gt;" style="text;html=1;strokeColor=none;fillColor=none;align=center;verticalAlign=middle;whiteSpace=wrap;rounded=0;" vertex="1" parent="W9VXBkHcguTDokLWkvG--12">
          <mxGeometry y="230" width="195" height="50" as="geometry" />
        </mxCell>
        <mxCell id="W9VXBkHcguTDokLWkvG--20" style="edgeStyle=orthogonalEdgeStyle;rounded=0;orthogonalLoop=1;jettySize=auto;html=1;exitX=1;exitY=0.5;exitDx=0;exitDy=0;" edge="1" parent="1" source="W9VXBkHcguTDokLWkvG--4" target="W9VXBkHcguTDokLWkvG--15">
          <mxGeometry relative="1" as="geometry" />
        </mxCell>
        <mxCell id="W9VXBkHcguTDokLWkvG--21" style="edgeStyle=orthogonalEdgeStyle;rounded=0;orthogonalLoop=1;jettySize=auto;html=1;exitX=1;exitY=0.5;exitDx=0;exitDy=0;entryX=0;entryY=0.5;entryDx=0;entryDy=0;" edge="1" parent="1" source="W9VXBkHcguTDokLWkvG--5" target="W9VXBkHcguTDokLWkvG--19">
          <mxGeometry relative="1" as="geometry" />
        </mxCell>
        <mxCell id="W9VXBkHcguTDokLWkvG--22" value="&lt;span style=&quot;font-family: &amp;#34;times new roman&amp;#34;&quot;&gt;&lt;font style=&quot;font-size: 20px&quot;&gt;10BTC&lt;/font&gt;&lt;/span&gt;" style="text;html=1;strokeColor=none;fillColor=none;align=center;verticalAlign=middle;whiteSpace=wrap;rounded=0;" vertex="1" parent="1">
          <mxGeometry x="435" y="120" width="40" height="20" as="geometry" />
        </mxCell>
        <mxCell id="W9VXBkHcguTDokLWkvG--23" value="&lt;span style=&quot;color: rgb(0 , 0 , 0) ; font-family: &amp;#34;times new roman&amp;#34; ; font-size: 16px ; font-style: normal ; font-weight: 400 ; letter-spacing: normal ; text-indent: 0px ; text-transform: none ; word-spacing: 0px ; background-color: rgb(255 , 255 , 255) ; display: inline ; float: none&quot;&gt;ScriptSig&lt;br&gt;{***|1BF***}&lt;/span&gt;" style="text;whiteSpace=wrap;html=1;align=center;" vertex="1" parent="1">
          <mxGeometry x="265" y="95" width="190" height="70" as="geometry" />
        </mxCell>
        <mxCell id="W9VXBkHcguTDokLWkvG--24" value="&lt;span style=&quot;font-family: &amp;#34;times new roman&amp;#34;&quot;&gt;&lt;font style=&quot;font-size: 20px&quot;&gt;20BTC&lt;/font&gt;&lt;/span&gt;" style="text;html=1;strokeColor=none;fillColor=none;align=center;verticalAlign=middle;whiteSpace=wrap;rounded=0;" vertex="1" parent="1">
          <mxGeometry x="435" y="205" width="40" height="20" as="geometry" />
        </mxCell>
        <mxCell id="W9VXBkHcguTDokLWkvG--25" value="&lt;span style=&quot;color: rgb(0 , 0 , 0) ; font-family: &amp;#34;times new roman&amp;#34; ; font-size: 16px ; font-style: normal ; font-weight: 400 ; letter-spacing: normal ; text-indent: 0px ; text-transform: none ; word-spacing: 0px ; background-color: rgb(255 , 255 , 255) ; display: inline ; float: none&quot;&gt;ScriptSig&lt;br&gt;{***|1CF***}&lt;/span&gt;" style="text;whiteSpace=wrap;html=1;align=center;" vertex="1" parent="1">
          <mxGeometry x="265" y="180" width="190" height="70" as="geometry" />
        </mxCell>
        <mxCell id="W9VXBkHcguTDokLWkvG--27" style="edgeStyle=orthogonalEdgeStyle;rounded=0;orthogonalLoop=1;jettySize=auto;html=1;exitX=1;exitY=0.5;exitDx=0;exitDy=0;" edge="1" parent="1" source="W9VXBkHcguTDokLWkvG--16">
          <mxGeometry relative="1" as="geometry">
            <mxPoint x="745" y="145" as="targetPoint" />
          </mxGeometry>
        </mxCell>
        <mxCell id="W9VXBkHcguTDokLWkvG--28" style="edgeStyle=orthogonalEdgeStyle;rounded=0;orthogonalLoop=1;jettySize=auto;html=1;exitX=1;exitY=0.5;exitDx=0;exitDy=0;" edge="1" parent="1" source="W9VXBkHcguTDokLWkvG--17">
          <mxGeometry relative="1" as="geometry">
            <mxPoint x="745" y="235" as="targetPoint" />
          </mxGeometry>
        </mxCell>
      </root>
    </mxGraphModel>
  </diagram>
</mxfile>
